<svg xmlns="http://www.w3.org/2000/svg" xmlns:xlink="http://www.w3.org/1999/xlink" xmlns:xodm="http://www.corel.com/coreldraw/odm/2003" width="76.799" height="76.799" version="1.1" viewBox="0 0 799.99 799.99" xml:space="preserve" style="shape-rendering:geometricPrecision;text-rendering:geometricPrecision;image-rendering:optimizeQuality;fill-rule:evenodd;clip-rule:evenodd"><g id="Layer_x0020_1"><metadata id="CorelCorpID_0Corel-Layer"/><path style="fill:#000;stroke:#000;stroke-width:3;stroke-linecap:round;stroke-linejoin:round;stroke-miterlimit:2.61313" d="M584.19 266.89c2.33,6.64 -0.41,13.04 -5.41,17.99l-79.16 78.43 24.41 103.8c1.61,6.85 0.2,13.72 -5.4,17.99 -5.6,4.26 -12.43,3.46 -18.78,0.42l-96.66 -46.39 -93.57 50.64c-6.19,3.35 -12.99,4.43 -18.78,0.42 -5.78,-4.01 -7.4,-10.79 -6.2,-17.73l19.43 -112.62 -82.24 -66.98c-5.46,-4.44 -8.23,-10.99 -6.2,-17.73 2.02,-6.74 7.99,-10.3 14.94,-11.37l110.36 -17.04 41.04 -98.21c2.71,-6.49 7.91,-11.22 14.94,-11.37 7.04,-0.16 12.41,4.34 15.44,10.7l47.06 98.65 109.33 9.73c7.01,0.62 13.11,4.05 15.44,10.7zm-455.73 -230.25l543.09 0c22.09,0 40.11,18.02 40.11,40.11l0 646.32c0,14.6 -7.16,27.14 -19.74,34.56 -12.58,7.41 -27.02,7.61 -39.79,0.54l-253.28 -140.18c-13.21,-7.31 -28.26,-6.84 -40.99,1.28l-207.82 132.52c-12.68,8.09 -27.67,8.58 -40.85,1.35 -13.19,-7.23 -20.82,-20.13 -20.82,-35.17l0 -641.21c0,-22.09 18.02,-40.11 40.11,-40.11z"/></g></svg>