<svg xmlns="http://www.w3.org/2000/svg" xmlns:xlink="http://www.w3.org/1999/xlink" width="456.775" height="156.961" version="1.1" viewBox="0 0 12077 4150" xml:space="preserve" style="shape-rendering:geometricPrecision;text-rendering:geometricPrecision;image-rendering:optimizeQuality;fill-rule:evenodd;clip-rule:evenodd"><defs><clipPath id="id0"><path d="M217 1562l11860 0 0 2588 -11860 0 0 -2588z"/></clipPath></defs><g id="Layer_x0020_1"><metadata id="CorelCorpID_0Corel-Layer"/><g id="_2728075909408"><g><path style="fill:#66d0e6;fill-rule:nonzero;stroke:#373435;stroke-width:17.2477" d="M11828 2145l-473 337c-21,-55 -49,-101 -84,-137 -35,-36 -74,-64 -116,-85 -42,-22 -86,-36 -132,-45 -45,-8 -89,-13 -132,-13 -89,0 -165,18 -230,53 -64,35 -117,80 -159,136 -41,56 -71,120 -92,191 -20,71 -30,141 -30,211 0,78 12,153 35,225 6,19 13,38 21,56 54,21 113,31 177,31 42,0 86,-5 130,-14 45,-10 87,-26 129,-48 41,-22 78,-51 111,-86 33,-35 59,-77 78,-128l504 301 285 285c-34,83 -85,157 -154,222 -69,66 -147,121 -235,165 -88,45 -182,79 -282,102 -101,23 -199,35 -294,35 -167,0 -320,-33 -459,-100 -138,-67 -253,-160 -358,-265l-285 -285c-106,-105 -179,-235 -234,-375 -55,-139 -82,-281 -82,-425 0,-138 26,-273 78,-406 51,-134 127,-253 227,-359 99,-106 220,-192 362,-257 141,-66 303,-99 485,-99 218,0 407,45 567,135 153,86 561,489 642,642z"/><polygon style="fill:#66d0e6;fill-rule:nonzero;stroke:#373435;stroke-width:17.2477" points="8601 3920 8316 3635 8316 1381 8935 1381 9220 1666 9220 3920"/><polygon style="fill:#66d0e6;fill-rule:nonzero;stroke:#373435;stroke-width:17.2477" points="7450 3920 7165 3635 7165 3362 7072 3567 6742 3567 6457 3283 6364 3077 6364 3920 5745 3920 5460 3635 5460 1381 6136 1381 6421 1666 6699 2274 7111 1381 7784 1381 8069 1666 8069 3920"/><path style="fill:#66d0e6;fill-rule:nonzero;stroke:#373435;stroke-width:17.2477" d="M4064 3939c-172,0 -327,-33 -467,-98 -140,-66 -259,-152 -359,-259 -97,-104 -194,-188 -285,-285 -99,-107 -176,-229 -231,-367 -55,-137 -83,-279 -83,-425 0,-148 29,-291 86,-429 57,-137 137,-258 239,-363 103,-105 225,-189 366,-251 140,-62 294,-94 461,-94 172,0 327,33 467,99 140,65 259,152 359,260 97,105 195,187 285,285 99,108 176,231 230,368 54,138 81,278 81,422 0,149 -29,291 -86,427 -57,137 -136,258 -238,362 -102,105 -223,189 -364,253 -140,63 -294,95 -461,95zm-459 -863c53,19 113,29 180,29 89,0 166,-18 232,-52 66,-35 119,-81 160,-137 41,-56 72,-120 92,-192 20,-72 30,-145 30,-219 0,-76 -10,-150 -31,-221 -6,-18 -12,-35 -18,-52 -55,-20 -116,-30 -183,-30 -89,0 -166,17 -230,51 -65,34 -118,79 -161,135 -42,56 -73,120 -93,191 -21,70 -31,143 -31,217 0,76 11,150 32,221 6,20 13,40 21,59z"/><path style="fill:#66d0e6;fill-rule:nonzero;stroke:#373435;stroke-width:17.2477" d="M2370 2145l-473 337c-22,-55 -50,-101 -84,-137 -35,-36 -74,-64 -116,-85 -43,-22 -87,-36 -132,-45 -46,-8 -90,-13 -132,-13 -89,0 -165,18 -230,53 -65,35 -118,80 -159,136 -41,56 -72,120 -92,191 -20,71 -30,141 -30,211 0,78 12,153 35,225 6,19 13,38 21,56 54,21 113,31 177,31 42,0 85,-5 130,-14 44,-10 87,-26 128,-48 42,-22 79,-51 112,-86 32,-35 58,-77 77,-128l505 301 285 285c-34,83 -85,157 -154,222 -69,66 -147,121 -235,165 -88,45 -182,79 -283,102 -100,23 -198,35 -293,35 -167,0 -320,-33 -459,-100 -139,-67 -253,-160 -359,-265l-284 -285c-106,-105 -179,-235 -234,-375 -55,-139 -82,-281 -82,-425 0,-138 26,-273 77,-406 52,-134 128,-253 227,-359 100,-106 221,-192 362,-257 142,-66 304,-99 486,-99 218,0 407,45 567,135 153,86 561,489 642,642z"/><path style="fill:#ea42a2;fill-rule:nonzero" d="M9 2489c0,-138 26,-273 77,-406 52,-134 128,-253 227,-359 100,-106 220,-192 362,-257 142,-66 304,-99 486,-99 218,0 407,45 567,135 160,90 279,209 357,357l-473 337c-21,-55 -49,-101 -84,-137 -35,-36 -74,-64 -116,-85 -42,-21 -86,-36 -132,-45 -45,-8 -89,-12 -132,-12 -89,0 -165,17 -230,52 -64,35 -117,80 -159,136 -41,57 -72,120 -92,191 -20,71 -30,141 -30,211 0,78 12,154 35,225 23,72 57,136 102,191 44,55 99,99 163,132 65,33 137,49 218,49 42,0 85,-5 130,-14 44,-10 87,-26 128,-48 42,-22 79,-51 112,-86 32,-35 58,-77 77,-128l505 301c-34,83 -85,157 -154,223 -69,65 -147,120 -235,165 -88,44 -182,78 -282,101 -101,24 -199,35 -294,35 -167,0 -320,-33 -459,-100 -138,-67 -258,-155 -359,-265 -100,-110 -178,-235 -233,-375 -55,-139 -82,-281 -82,-425z"/><path style="fill:#ea42a2;fill-rule:nonzero" d="M3784 3654c-172,0 -327,-33 -467,-98 -140,-66 -259,-152 -359,-259 -99,-107 -176,-229 -231,-367 -56,-137 -83,-279 -83,-425 0,-148 29,-291 86,-429 57,-137 137,-258 239,-363 103,-105 225,-189 365,-251 141,-62 295,-94 462,-94 172,0 327,33 467,99 140,65 259,152 359,260 99,108 176,231 230,368 54,138 81,279 81,423 0,148 -29,290 -86,427 -57,136 -136,257 -238,362 -101,104 -223,188 -363,252 -141,63 -295,95 -462,95zm-511 -1143c0,76 10,150 31,221 21,71 53,134 96,189 42,55 95,99 160,133 64,34 141,51 230,51 89,0 166,-18 232,-52 65,-35 119,-81 160,-137 41,-56 72,-120 92,-192 20,-72 30,-145 30,-219 0,-76 -10,-150 -31,-221 -22,-71 -54,-133 -97,-187 -44,-54 -98,-97 -162,-130 -65,-33 -140,-49 -227,-49 -89,0 -166,17 -230,50 -65,34 -118,79 -161,135 -42,56 -73,120 -93,191 -20,71 -30,143 -30,217z"/><polygon style="fill:#ea42a2;fill-rule:nonzero" points="7166 3631 7166 2444 6788 3279 6458 3279 6080 2444 6080 3631 5461 3631 5461 1377 6137 1377 6623 2438 7112 1377 7785 1377 7785 3631"/><polygon style="fill:#ea42a2;fill-rule:nonzero" points="8316 3633 8316 1379 8935 1379 8935 3633"/><path style="fill:#ea42a2;fill-rule:nonzero" d="M9467 2489c0,-138 26,-273 78,-406 52,-134 127,-253 227,-359 99,-106 220,-192 362,-257 141,-66 303,-99 485,-99 218,0 407,45 567,135 160,90 279,209 357,357l-473 337c-21,-55 -49,-101 -84,-137 -35,-36 -74,-64 -116,-85 -42,-21 -86,-36 -132,-45 -45,-8 -89,-12 -131,-12 -89,0 -166,17 -231,52 -64,35 -117,80 -158,136 -42,57 -72,120 -92,191 -20,71 -30,141 -30,211 0,78 11,154 34,225 24,72 58,136 102,191 44,55 99,99 164,132 64,33 137,49 217,49 42,0 86,-5 130,-14 45,-10 87,-26 129,-48 41,-22 78,-51 111,-86 33,-35 59,-77 78,-128l504 301c-33,83 -85,157 -154,223 -68,65 -147,120 -234,165 -88,44 -183,78 -283,101 -101,24 -198,35 -294,35 -167,0 -320,-33 -458,-100 -139,-67 -259,-155 -359,-265 -101,-110 -179,-235 -234,-375 -55,-139 -82,-281 -82,-425z"/></g><path style="fill:#fefefe;fill-rule:nonzero" d="M823 1919c4,-12 9,-23 16,-31 8,-8 16,-13 24,-14 8,-1 16,2 22,10 7,8 12,21 15,40 3,15 7,37 12,67 6,29 12,63 20,100 7,37 17,77 28,120 11,42 24,84 38,126 14,42 31,82 49,120 19,39 40,72 64,101 -10,-74 -12,-163 -9,-268 3,-105 11,-219 24,-342 12,-123 29,-251 50,-385 21,-133 44,-265 71,-396 27,-132 55,-258 85,-379 30,-120 61,-230 93,-329 31,-99 62,-182 92,-251 31,-68 60,-115 88,-141 28,-27 58,-44 89,-53 31,-10 57,-11 75,-6 19,6 29,18 30,37 1,18 -15,41 -46,69 -40,36 -79,90 -117,164 -38,74 -75,162 -110,263 -35,101 -68,212 -100,332 -31,121 -59,246 -85,375 -26,129 -49,258 -70,389 -20,131 -36,257 -48,378 -12,121 -20,234 -24,339 -5,104 -4,194 3,270 1,21 -1,40 -6,57 -5,16 -11,30 -19,41 -8,11 -15,20 -24,26 -8,7 -14,9 -19,9 -21,-1 -42,-16 -65,-44 -22,-29 -43,-64 -64,-107 -21,-42 -41,-88 -59,-138 -19,-50 -35,-95 -49,-137 -13,-41 -24,-75 -33,-102 -8,-26 -13,-37 -14,-33 -25,115 -45,222 -57,321 -12,98 -21,186 -27,264 -7,78 -14,143 -20,197 -6,53 -17,93 -33,117 -17,28 -35,47 -54,58 -20,11 -38,17 -55,17 -17,0 -32,-5 -45,-15 -13,-9 -22,-22 -27,-37 -12,-37 -23,-90 -35,-159 -11,-68 -22,-146 -33,-234 -10,-87 -20,-180 -29,-280 -8,-100 -17,-199 -24,-299 -7,-100 -13,-197 -18,-291 -6,-94 -10,-179 -13,-254 -4,-75 -6,-138 -7,-189 -2,-51 -1,-83 1,-97 5,-39 17,-67 37,-84 20,-17 40,-25 62,-22 21,2 39,14 55,35 15,21 21,51 18,90 -1,9 -3,43 -8,103 -3,58 -7,133 -9,224 -3,90 -5,192 -6,306 -1,113 2,229 8,348 6,119 17,236 33,351 15,115 37,220 65,316 4,18 9,28 14,31 4,3 8,2 13,-4 4,-5 8,-13 12,-24 4,-11 7,-22 11,-32 1,-5 3,-35 6,-90 2,-55 8,-129 17,-222 10,-93 24,-201 42,-324 19,-124 45,-256 79,-398z"/><path id="1" d="M1872 1504c51,-22 95,-24 131,-7 37,17 60,47 69,90 8,41 6,82 -7,123 -13,40 -32,78 -58,112 -25,34 -54,64 -87,91 -33,25 -65,45 -96,58 -45,20 -85,30 -120,30 -34,1 -59,-5 -75,-16 -3,44 1,84 13,120 8,22 18,39 32,51 14,13 30,21 49,26 19,5 40,7 61,5 22,-1 44,-6 66,-15 50,-20 99,-47 144,-81 46,-35 89,-72 129,-112 40,-41 77,-82 110,-124 33,-42 61,-81 85,-116 24,-36 43,-66 56,-91 14,-24 23,-40 25,-45 10,-21 21,-34 32,-41 10,-8 19,-10 27,-6 7,3 12,10 13,22 2,12 -1,27 -10,45 -22,44 -52,97 -92,160 -40,62 -86,125 -139,188 -53,62 -112,119 -177,172 -65,52 -134,90 -207,113 -54,18 -99,24 -134,18 -35,-6 -63,-17 -84,-34 -22,-17 -37,-35 -47,-56 -10,-21 -17,-36 -22,-47 -8,-19 -12,-45 -14,-78 -1,-33 2,-69 9,-108 7,-40 18,-81 34,-125 16,-44 37,-86 63,-126 25,-40 57,-77 94,-111 36,-35 79,-63 127,-85zm23 80c-64,33 -119,80 -164,139 -44,59 -75,122 -91,188 9,-1 21,-2 33,-2 13,-1 26,-1 40,-1 14,0 29,-1 43,-3 14,-2 28,-6 42,-12 27,-11 52,-25 75,-44 23,-18 42,-39 59,-63 17,-23 30,-49 39,-78 10,-29 14,-60 13,-93 0,-17 -8,-30 -24,-40 -16,-9 -37,-6 -65,9z" style="fill:#fefefe;fill-rule:nonzero"/><path id="2" d="M2670 34c21,-2 35,5 43,22 8,16 12,38 13,66 0,28 -3,59 -9,92 -5,33 -12,65 -18,96 -7,31 -13,58 -20,80 -6,23 -10,38 -12,44 -45,213 -85,410 -121,590 -36,181 -63,343 -79,485 9,-24 24,-52 44,-86 21,-34 44,-68 70,-102 26,-34 54,-65 84,-92 30,-28 59,-48 88,-61 21,-8 42,-10 63,-6 21,4 40,13 57,29 18,16 32,37 43,65 11,28 17,60 18,97 1,50 1,97 -2,142 -2,45 -7,88 -15,130 78,-52 154,-111 231,-176 76,-66 142,-147 199,-241 6,-10 13,-16 21,-16 9,-1 16,2 22,7 7,5 11,13 13,23 1,10 -1,21 -9,33 -32,56 -69,107 -108,153 -41,47 -82,90 -126,129 -44,39 -88,74 -134,106 -45,32 -89,62 -132,91 -15,56 -32,107 -52,153 -20,45 -41,85 -64,119 -22,34 -45,62 -68,85 -22,22 -43,37 -62,45 -22,10 -41,13 -58,11 -17,-2 -31,-8 -43,-17 -11,-9 -20,-20 -27,-33 -7,-14 -11,-26 -13,-38 -6,-37 -2,-71 11,-102 13,-30 33,-59 60,-88 27,-28 59,-55 97,-82 37,-27 78,-55 122,-84 14,-59 25,-118 33,-175 7,-58 11,-108 10,-152 0,-44 -6,-76 -17,-99 -11,-22 -29,-27 -53,-15 -31,16 -62,40 -94,70 -32,30 -63,68 -91,113 -29,45 -55,98 -78,157 -23,59 -41,125 -54,198 3,45 8,83 15,115 3,10 7,23 14,39 6,15 10,30 12,44 2,14 0,27 -6,38 -6,10 -20,16 -43,18 -37,1 -64,-11 -82,-38 -18,-27 -29,-63 -33,-107 -4,-43 -2,-92 5,-146 7,-54 18,-107 33,-158 3,-12 8,-35 15,-70 7,-35 15,-77 24,-128 9,-50 19,-107 30,-169 11,-63 23,-128 34,-195 11,-67 22,-135 33,-203 11,-69 22,-133 32,-195 11,-62 20,-119 28,-170 8,-51 15,-94 19,-129 3,-14 5,-38 7,-71 2,-34 5,-67 11,-102 5,-34 13,-65 24,-93 10,-27 25,-43 45,-46zm30 1963c11,-24 23,-51 34,-82 12,-32 23,-65 34,-101 -60,39 -108,75 -145,110 -37,34 -55,70 -55,109 1,27 6,44 17,49 11,5 24,4 38,-3 15,-7 30,-19 44,-35 15,-17 25,-32 33,-47z" style="fill:#fefefe;fill-rule:nonzero"/></g></g></svg>