<svg fill="#000000" xmlns="http://www.w3.org/2000/svg"  viewBox="0 0 64 64" width="64px" height="64px"><path d="M 37.074219 0.00390625 C 34.835938 -0.0078125 32.671875 0.796875 31.003906 2.289063 C 29.09375 3.996094 28 6.441406 28 9 C 28 11.332031 28.890625 13.542969 30.507813 15.230469 C 30.824219 15.558594 31 15.988281 31 16.441406 C 28.199219 16.230469 25.464844 15.886719 22.867188 15.417969 L 18.019531 14.53125 C 17.054688 14.351563 16.058594 14.667969 15.363281 15.363281 C 14.667969 16.058594 14.355469 17.054688 14.53125 18.019531 L 15.414063 22.871094 C 15.886719 25.464844 16.230469 28.203125 16.433594 31 C 15.988281 31 15.554688 30.824219 15.21875 30.5 C 13.257813 28.625 10.582031 27.738281 7.867188 28.070313 C 3.796875 28.566406 0.511719 31.890625 0.0585938 35.96875 C -0.230469 38.53125 0.585938 41.09375 2.289063 43 C 3.996094 44.90625 6.441406 46 9 46 C 11.332031 46 13.542969 45.109375 15.230469 43.492188 C 15.558594 43.175781 15.984375 43 16.4375 43 L 16.441406 43 C 16.230469 45.800781 15.886719 48.535156 15.417969 51.132813 L 14.445313 56.464844 C 14.285156 57.339844 14.523438 58.238281 15.09375 58.921875 C 15.664063 59.605469 16.503906 60 17.394531 60 L 57.328125 60 C 58.78125 60 60.023438 58.964844 60.28125 57.535156 L 61.382813 51.488281 C 61.867188 48.824219 62.222656 46.015625 62.4375 43.152344 C 62.476563 42.597656 62.285156 42.050781 61.90625 41.644531 C 61.527344 41.234375 60.988281 41 60.433594 41 C 59.46875 41 58.546875 41.375 57.835938 42.058594 C 56.3125 43.515625 54.226563 44.203125 52.113281 43.949219 C 48.949219 43.558594 46.398438 40.980469 46.046875 37.8125 C 45.820313 35.785156 46.433594 33.839844 47.78125 32.335938 C 49.105469 30.851563 51.011719 30 53 30 C 54.8125 30 56.535156 30.691406 57.84375 31.953125 C 58.546875 32.628906 59.46875 33 60.433594 33 C 60.992188 33 61.527344 32.765625 61.90625 32.355469 C 62.285156 31.949219 62.476563 31.398438 62.4375 30.847656 C 62.222656 27.980469 61.867188 25.175781 61.382813 22.511719 L 60.34375 16.785156 C 60.199219 16 59.757813 15.3125 59.097656 14.859375 C 58.441406 14.402344 57.644531 14.226563 56.855469 14.375 L 51.132813 15.414063 C 48.535156 15.886719 45.800781 16.230469 43 16.433594 C 43 15.988281 43.179688 15.554688 43.5 15.21875 C 45.378906 13.257813 46.261719 10.582031 45.933594 7.867188 C 45.433594 3.796875 42.109375 0.511719 38.03125 0.0585938 C 37.710938 0.0195313 37.390625 0.00390625 37.074219 0.00390625 Z M 37.054688 2 C 37.304688 2 37.558594 2.019531 37.8125 2.046875 C 40.980469 2.402344 43.558594 4.949219 43.949219 8.109375 C 44.207031 10.222656 43.515625 12.3125 42.058594 13.835938 C 41.375 14.546875 41 15.46875 41 16.433594 C 41 16.992188 41.234375 17.527344 41.644531 17.90625 C 42.050781 18.285156 42.601563 18.480469 43.152344 18.4375 C 46.019531 18.222656 48.824219 17.867188 51.488281 17.382813 L 57.214844 16.34375 C 57.480469 16.292969 57.742188 16.351563 57.960938 16.503906 C 58.179688 16.65625 58.328125 16.882813 58.375 17.144531 L 59.417969 22.871094 C 59.886719 25.464844 60.234375 28.203125 60.433594 31 C 59.988281 31 59.558594 30.824219 59.230469 30.511719 C 57.542969 28.890625 55.332031 28 53 28 C 50.441406 28 47.996094 29.09375 46.289063 31 C 44.585938 32.90625 43.773438 35.46875 44.058594 38.03125 C 44.511719 42.109375 47.796875 45.433594 51.871094 45.929688 C 54.582031 46.261719 57.257813 45.375 59.21875 43.5 C 59.554688 43.179688 59.984375 43 60.4375 43 L 60.441406 43 C 60.230469 45.800781 59.886719 48.535156 59.414063 51.132813 L 58.3125 57.179688 C 58.230469 57.65625 57.8125 58 57.328125 58 L 17.394531 58 C 16.988281 58 16.738281 57.773438 16.625 57.640625 C 16.515625 57.507813 16.339844 57.222656 16.410156 56.824219 L 17.378906 51.488281 C 17.867188 48.824219 18.222656 46.019531 18.4375 43.152344 C 18.476563 42.601563 18.285156 42.050781 17.90625 41.644531 C 17.527344 41.234375 16.992188 41 16.433594 41 C 15.46875 41 14.546875 41.375 13.84375 42.050781 C 12.535156 43.308594 10.8125 44 9 44 C 7.011719 44 5.105469 43.148438 3.78125 41.664063 C 2.433594 40.160156 1.820313 38.214844 2.046875 36.1875 C 2.402344 33.019531 4.949219 30.441406 8.109375 30.050781 C 10.226563 29.796875 12.3125 30.484375 13.835938 31.941406 C 14.546875 32.625 15.46875 33 16.433594 33 C 16.992188 33 17.527344 32.765625 17.90625 32.355469 C 18.285156 31.949219 18.476563 31.398438 18.4375 30.847656 C 18.222656 27.980469 17.867188 25.175781 17.382813 22.511719 L 16.5 17.660156 C 16.441406 17.335938 16.542969 17.011719 16.777344 16.777344 C 17.015625 16.542969 17.339844 16.445313 17.660156 16.5 L 22.511719 17.382813 C 25.175781 17.867188 27.984375 18.222656 30.847656 18.4375 C 31.386719 18.480469 31.949219 18.285156 32.355469 17.90625 C 32.765625 17.527344 33 16.992188 33 16.433594 C 33 15.46875 32.625 14.546875 31.949219 13.84375 C 30.691406 12.535156 30 10.8125 30 9 C 30 7.011719 30.851563 5.105469 32.335938 3.78125 C 33.652344 2.601563 35.304688 1.980469 37.054688 2 Z M 55.828125 19.558594 L 52.675781 20.132813 C 52.132813 20.234375 51.773438 20.75 51.871094 21.296875 C 51.957031 21.777344 52.378906 22.117188 52.855469 22.117188 C 52.914063 22.117188 52.972656 22.113281 53.03125 22.097656 L 56.1875 21.527344 C 56.730469 21.429688 57.089844 20.910156 56.992188 20.363281 C 56.894531 19.820313 56.371094 19.460938 55.828125 19.558594 Z M 20.152344 19.921875 C 19.609375 19.816406 19.085938 20.183594 18.988281 20.726563 C 18.886719 21.269531 19.25 21.789063 19.792969 21.890625 L 22.511719 22.382813 C 27.308594 23.253906 32.148438 23.691406 36.996094 23.691406 C 40.96875 23.691406 44.945313 23.398438 48.902344 22.8125 C 49.449219 22.730469 49.824219 22.21875 49.742188 21.671875 C 49.660156 21.125 49.15625 20.757813 48.609375 20.828125 C 40.042969 22.101563 31.382813 21.960938 22.867188 20.414063 Z M 21 52 C 20.445313 52 20 52.445313 20 53 L 20 55 C 20 55.554688 20.445313 56 21 56 C 21.554688 56 22 55.554688 22 55 L 22 53 C 22 52.445313 21.554688 52 21 52 Z M 26 52 C 25.445313 52 25 52.445313 25 53 L 25 55 C 25 55.554688 25.445313 56 26 56 C 26.554688 56 27 55.554688 27 55 L 27 53 C 27 52.445313 26.554688 52 26 52 Z M 31 52 C 30.445313 52 30 52.445313 30 53 L 30 55 C 30 55.554688 30.445313 56 31 56 C 31.554688 56 32 55.554688 32 55 L 32 53 C 32 52.445313 31.554688 52 31 52 Z M 36 52 C 35.445313 52 35 52.445313 35 53 L 35 55 C 35 55.554688 35.445313 56 36 56 C 36.554688 56 37 55.554688 37 55 L 37 53 C 37 52.445313 36.554688 52 36 52 Z M 41 52 C 40.445313 52 40 52.445313 40 53 L 40 55 C 40 55.554688 40.445313 56 41 56 C 41.554688 56 42 55.554688 42 55 L 42 53 C 42 52.445313 41.554688 52 41 52 Z M 46 52 C 45.445313 52 45 52.445313 45 53 L 45 55 C 45 55.554688 45.445313 56 46 56 C 46.554688 56 47 55.554688 47 55 L 47 53 C 47 52.445313 46.554688 52 46 52 Z M 51 52 C 50.445313 52 50 52.445313 50 53 L 50 55 C 50 55.554688 50.445313 56 51 56 C 51.554688 56 52 55.554688 52 55 L 52 53 C 52 52.445313 51.554688 52 51 52 Z M 56 52 C 55.445313 52 55 52.445313 55 53 L 55 55 C 55 55.554688 55.445313 56 56 56 C 56.554688 56 57 55.554688 57 55 L 57 53 C 57 52.445313 56.554688 52 56 52 Z"/></svg>