<svg xmlns="http://www.w3.org/2000/svg" height="768" width="1024">
    <g text-anchor="middle">
        <g style="line-height:1;font-variant-ligatures:normal;text-align:center" font-weight="400" font-size="72" font-family="Brandmark Sans 14 Color">
            <g aria-label="t">
                <path class="c1" d="M330.543 413.42v16.33c-11.522 0-29.606-2.43-29.606-22.134v-19.212h-6.21V371.05h6.21v-16.99h19.678v50.103c0 3.372 1.83 9.255 9.928 9.255z" fill="#424242"/>
                <path class="c3" d="M324.361 382.28c0-6.214 4.882-11.254 10.906-11.254 6.022 0 10.904 5.04 10.904 11.255 0 6.215-4.882 11.254-10.904 11.254-6.024 0-10.906-5.039-10.906-11.254z" fill="#43a9b4"/>
            </g>
            <path class="c1" d="M420.213 408.043c0 5.743-4.008 21.842-29.13 21.842-24.097 0-31.397-17.993-31.397-30.121 0-9.233 4.508-30.674 30.643-30.674 19.855 0 27.372 12.83 28.934 21.841h-17.517c0-4.322-3.32-8.897-11.798-8.897-5.017 0-10.42 4.947-10.42 15.721 0 6.746 2.027 18.007 11.662 18.007 5.918 0 9.786-2.951 10.159-7.72h18.864z" fill="#424242" aria-label="c"/>
            <path class="c1" d="M501.08 399.367c0 16.788-13.084 30.55-33.118 30.55-20.033 0-33.116-13.762-33.116-30.55s13.083-30.397 33.116-30.397c20.034 0 33.118 13.609 33.118 30.397zm-20.541.076c0-7.262-5.631-13.15-12.577-13.15-6.945 0-12.575 5.888-12.575 13.15 0 7.263 5.63 13.15 12.575 13.15 6.946 0 12.577-5.887 12.577-13.15z" fill="#424242" aria-label="o"/>
            <path class="c1" d="M611.972 390.692v36.934h-19.68v-29.558c0-9.116-3.159-12.369-8.813-12.369-4.526 0-6.742 3.045-7.825 6.552v35.375h-19.68v-29.558c0-9.116-3.16-12.369-8.814-12.369-8.185 0-8.838 6.48-8.838 11.139v30.786h-19.68v-56.6h19.68v6.902s3.64-8.114 16.258-8.114c8.602 0 16.37 3.773 19.545 12.033 1.98-3.933 7.218-12.033 16.774-12.033 11.235 0 21.074 6.405 21.073 20.88z" fill="#424242" aria-label="m"/>
            <g aria-label="i">
                <path class="c3" d="M630.416 349.322c0-6.214 4.882-11.254 10.904-11.254 6.024 0 10.906 5.04 10.906 11.254 0 6.216-4.882 11.256-10.906 11.256-6.022 0-10.904-5.04-10.904-11.256z" fill="#43a9b4"/>
                <path class="c1" d="M631.426 427.658v-56.6h19.68v56.6h-19.68z" fill="#424242"/>
            </g>
            <path class="c1" d="M729.32 408.043c0 5.743-4.009 21.842-29.13 21.842-24.097 0-31.398-17.993-31.398-30.121 0-9.233 4.509-30.674 30.644-30.674 19.855 0 27.371 12.83 28.933 21.841h-17.516c0-4.322-3.32-8.897-11.799-8.897-5.016 0-10.42 4.947-10.42 15.721 0 6.746 2.027 18.007 11.663 18.007 5.917 0 9.786-2.951 10.158-7.72h18.864z" fill="#424242" aria-label="c"/>
        </g>
    </g>
</svg>