<svg xmlns="http://www.w3.org/2000/svg" xmlns:xlink="http://www.w3.org/1999/xlink" xmlns:xodm="http://www.corel.com/coreldraw/odm/2003" width="76.799" height="76.799" version="1.1" viewBox="0 0 799.99 799.99" xml:space="preserve" style="shape-rendering:geometricPrecision;text-rendering:geometricPrecision;image-rendering:optimizeQuality;fill-rule:evenodd;clip-rule:evenodd"><g id="Layer_x0020_1"><metadata id="CorelCorpID_0Corel-Layer"/><g id="_1852506752192"><path style="fill:none;stroke:#000;stroke-width:27.78;stroke-miterlimit:2.61313" d="M92.09 391.17c0,55.65 7.57,93.73 28.06,137.92 47.82,103.13 156.15,178.4 271.42,178.4 55.48,0 93.86,-7.63 137.92,-28.06 102.84,-47.69 178.4,-155.73 178.4,-271.42 0,-55.65 -7.57,-93.73 -28.06,-137.92 -15.48,-33.39 -37.44,-64.09 -61.84,-88.5 -13,-13 -25.52,-22.91 -40.69,-33.88 -44.52,-32.21 -107.83,-56.02 -168.89,-56.02 -55.48,0 -93.86,7.63 -137.92,28.06 -103.11,47.81 -178.4,156.12 -178.4,271.42z"/><path style="fill:none;stroke:#000;stroke-width:27.78;stroke-linecap:round;stroke-linejoin:round;stroke-miterlimit:2.61313" d="M501.03 374.1c0,19.88 -1.09,32.43 -9.99,50.15 -10.47,20.82 -28.75,38.83 -50.65,47.98 -27.15,11.35 -53.63,11.35 -80.79,0 -10.09,-4.21 -22.63,-12.55 -29.69,-19.63 -17.07,-17.15 -30.95,-41.4 -30.95,-67.67 0,-20.18 0.72,-31.62 9.62,-49.31 2.68,-5.33 5.23,-10.39 8.74,-15.31 7.26,-10.17 10.12,-11.71 17.42,-18.66 2.31,-2.2 4.01,-3.52 6.64,-5.4 4.8,-3.43 10.06,-6.17 15.29,-8.75 38.07,-18.81 82.56,-9.85 114.45,19.09 15.83,14.36 29.9,44.48 29.9,67.52zm-145.53 156.35l89 0c20.28,0 35.91,1.74 50.67,7.07 26.49,9.54 49.95,31.37 59.54,58.32 5.44,15.31 9.8,33.63 5.45,49.07 -4.57,16.24 -15.53,22.55 -27.02,31.91 -22.16,18.04 -65.28,23.08 -92,27.45 -5.05,0.82 -7.74,1.01 -12.69,1.74 -4.83,0.71 -7.12,0.91 -13.48,0.95 -6.78,0.04 -7.75,1.33 -14.4,1.33 -6.45,0 -7.08,-1.18 -13.2,-1.33 -29.44,-0.72 -52.75,-6.15 -79.05,-17.41 -10.53,-4.51 -31.46,-5.31 -40.83,-12.19 -11.81,-8.68 -22.67,-17.23 -27.53,-31.4 -5,-14.59 0.09,-37.41 4.85,-49.39 19.4,-48.82 59.57,-66.14 110.67,-66.14z"/></g></g></svg>