<svg xmlns="http://www.w3.org/2000/svg" xml:space="preserve" width="767.999" height="767.999" viewBox="0 0 7999.99 7999.99" shape-rendering="geometricPrecision" text-rendering="geometricPrecision" image-rendering="optimizeQuality" fill-rule="evenodd" clip-rule="evenodd">
  <defs>
    <clipPath id="a" clip-rule="nonzero">
      <path d="M2379.81 1756.27h3232.42c137.04 0 248.87 111.6 249.14 248.64l7.96 3987.61c.19 92.42-46.03 171.83-126.46 217.33-80.44 45.52-172.31 44.22-251.43-3.54l-1359.49-820.6c-81.3-49.08-176.42-49.03-257.68.11L2516.7 6206.83c-78.96 47.75-170.66 49.2-251.09 3.95s-126.8-124.36-126.99-216.65l-7.96-3988.22c-.14-68.7 24.27-127.87 72.8-176.5 48.53-48.62 107.65-73.15 176.35-73.15z"/>
    </clipPath>
      <clipPath id="b">
      <path d="M2379.81 1756.27h3232.42c137.04 0 248.87 111.6 249.14 248.64l7.96 3987.61c.19 92.42-46.03 171.83-126.46 217.33-80.44 45.52-172.31 44.22-251.43-3.54l-1359.49-820.6c-81.3-49.08-176.42-49.03-257.68.11L2516.7 6206.83c-78.96 47.75-170.66 49.2-251.09 3.95s-126.8-124.36-126.99-216.65l-7.96-3988.22c-.14-68.7 24.27-127.87 72.8-176.5 48.53-48.62 107.65-73.15 176.35-73.15z"/>
    </clipPath>
      <clipPath id="c">
      <path d="M2379.81 1756.27h3232.42c137.04 0 248.87 111.6 249.14 248.64l7.96 3987.61c.19 92.42-46.03 171.83-126.46 217.33-80.44 45.52-172.31 44.22-251.43-3.54l-1359.49-820.6c-81.3-49.08-176.42-49.03-257.68.11L2516.7 6206.83c-78.96 47.75-170.66 49.2-251.09 3.95s-126.8-124.36-126.99-216.65l-7.96-3988.22c-.14-68.7 24.27-127.87 72.8-176.5 48.53-48.62 107.65-73.15 176.35-73.15z"/>
    </clipPath>
      <clipPath id="e">
      <path d="M5869.09 5874.48h-927.41l-809.74-488.76c-81.3-49.08-176.42-49.03-257.68.11l-808.02 488.66h-927.87l-7.72-3868.56c-.14-68.7 24.27-127.87 72.8-176.5 48.53-48.62 107.65-73.15 176.35-73.15h3232.42c137.04 0 248.87 111.6 249.14 248.64l7.72 3869.57z"/>
    </clipPath>
      <clipPath id="f">
      <path d="M2379.81 1756.27h3232.42c137.04 0 248.87 111.6 249.14 248.64l7.96 3987.61c.19 92.42-46.03 171.83-126.46 217.33-80.44 45.52-172.31 44.22-251.43-3.54l-1359.49-820.6c-81.3-49.08-176.42-49.03-257.68.11L2516.7 6206.83c-78.96 47.75-170.66 49.2-251.09 3.95s-126.8-124.36-126.99-216.65l-7.96-3988.22c-.14-68.7 24.27-127.87 72.8-176.5 48.53-48.62 107.65-73.15 176.35-73.15z"/>
    </clipPath>
      <linearGradient id="d" gradientUnits="userSpaceOnUse" x1="-2595.17" y1="2109.88" x2="8143.32" y2="6625.19">
      <stop offset="0" stop-color="#00dbde"/>
          <stop offset="1" stop-color="#fc00ff"/>
    </linearGradient>
      <linearGradient id="g" gradientUnits="userSpaceOnUse" x1="7029.77" y1="1488.19" x2="2030.57" y2="4621.22">
      <stop offset="0" stop-color="#4158d0"/>
          <stop offset="1" stop-color="#c850c0"/>
    </linearGradient>
  </defs>
    <path d="M-77.43 4541.33c53.16.22 105.83.89 159.53 1.11 7.87.03 14.63 3.61 19.08 10.09 4.46 6.49 5.37 14.07 2.57 21.43l-105 276.61c5.02-3.36 7.57-8.18 11.91-12.57.26-.26.48-.5.73-.78l136.69-151.67c2.67-2.88 2.96-4.07 5.63-6.95 2.24-2.41 4.12-3.81 6.3-6.28l94.57-105.87c.29-.33.54-.59.85-.91 2.02-2.03 3.69-3.37 5.6-5.62l.37-.43 83.78-93.92c6.24-7 7.71-16.44 3.87-25-3.83-8.56-11.86-13.75-21.24-13.75h-139.7c-7.88 0-14.65-3.55-19.13-10.03-4.48-6.48-5.41-14.07-2.64-21.44 2.87-7.6 5.91-14.97 8.85-23.19.05-.13.09-.25.14-.39l62.17-164.91c.15-.38-3.01-.43-11.76 0s-13.86-.08-21.74-.08H31.85c-20.83 0-6.68.08-17.64.08l-113.3 302.97c-2.76 7.37-1.87 14.93 2.59 21.41s11.2 10.05 19.07 10.08z" fill="none"/>
    <g clip-path="url(#a)">
    <path fill="#2e4ae6" d="M-449.43-1344.79h6091.56V9016.1H-449.43z"/>
        <path d="M-93.53 1935.13c-225.31 172.2-532.56 505.7-716.56 710.99-604.24 674.15-646.3 1465.87-84.7 2204.99 639.15 841.19 1230.7 1069.53 2150 1229.54 220.3 38.34 502.8 62.2 728.44 104.61 833.73 156.7 828.77 364.74 1446.96 874 493.25 406.34 918.42 665.85 1449.15 848.02 221.78 76.12 458.95 118.63 736.6 117.72 225.45-.74 171.66-5.57 371.24-25.7 600.16-60.51 1430.56-569.54 1673.52-1193.83 105.82-271.91 127.46-486.14 98.75-735.76-5.84-50.76-18.57-130.09-32.05-185.65-7.8-32.15-12.58-58.53-22.69-93.31-202.39-696.48-520.45-1095.68-1072.75-1528.42-47.74-37.41-121.79-86.7-180.8-128.61l-92.93-60.23c-29.44-17.98-55.42-35.55-81.77-52.79-64.66-42.29-114.34-74.46-181.38-116.25l-272.99-174.62c-7.94-5.42-17.06-11.9-24.81-17.07-34.65-23.1 5.1 2.93-25.92-16.8l-221.84-159.47c-609.67-476.5-648.15-840.1-830.72-1454.54l-73.72-279.7c-6.29-23.48-10.81-38.9-14.09-49.76l-118.96-405.57C4256.57 524.31 3902.21-263.67 2969.94-545.49c-203.78-61.61-344.54-83.58-552.59-82.83-646.86 2.32-1111.14 493.41-1382.51 1040.5-14.11 28.44-29.29 56.53-44.15 85.09C887.36 695.8 822.63 870.99 724.7 1043.5c-30.92 54.46-74.09 123.82-119.28 182.57-148.52 193.07-486.45 546.67-698.94 709.08z" fill="url(#d)"/>
        <path d="M3536.72 685.22c-343.56 280.96-712.27 901.46-839.77 1328.35-75.15 251.63-116.23 618 7.54 856.62 37.22 71.72 351.26 335.79 434.7 403 112.66 90.71 702.54 280.76 884.36 351.07 973.05 376.26 615.59 1594.97 1493.55 1397.2 74.2-16.72 132.67-19.64 210.09-42.2 462.85-134.85 873.15-469.5 1230.39-810.11 544.3-519 1008.78-1116.4 1078.17-1743.11 88.09-795.76-527.88-1182.94-1057.22-1645.55-294.8-257.61-752.89-469.7-1116.59-582.18-296.67-91.75-673.24-145.46-976.25-108.34l-77.6 9.52c-3.25.43-7.85.96-11.11 1.43l-65.94 12.44c-299.76 60.53-511.94 132.6-783.43 283L3742.72 520.4c-79.19 56.84-126.37 99.7-206 164.82z" fill="url(#g)"/>
  </g>
    <path d="M2379.81 1756.27h3232.42c137.04 0 248.87 111.6 249.14 248.64l7.96 3987.61c.19 92.42-46.03 171.83-126.46 217.33-80.44 45.52-172.31 44.22-251.43-3.54l-1359.49-820.6c-81.3-49.08-176.42-49.03-257.68.11L2516.7 6206.83c-78.96 47.75-170.66 49.2-251.09 3.95s-126.8-124.36-126.99-216.65l-7.96-3988.22c-.14-68.7 24.27-127.87 72.8-176.5 48.53-48.62 107.65-73.15 176.35-73.15z" fill="none"/>
    <path d="M3252.06 3611.89c203.16.85 404.43 3.39 609.65 4.24 30.08.13 55.89 13.78 72.92 38.57s20.51 53.78 9.84 81.9L3543.2 4793.72c19.2-12.86 28.94-31.26 45.52-48.05 1.01-1.02 1.84-1.91 2.8-2.96l522.37-579.63c10.19-11 11.31-15.55 21.5-26.54 8.56-9.24 15.75-14.58 24.05-24.01l361.41-404.61c1.11-1.24 2.08-2.28 3.25-3.46 7.72-7.78 14.09-12.88 21.39-21.47.49-.58.91-1.06 1.41-1.63l320.19-358.93c23.86-26.75 29.45-62.83 14.79-95.54-14.65-32.71-45.3-52.56-81.15-52.56h-533.88c-30.11 0-56-13.57-73.13-38.33-17.13-24.76-20.7-53.78-10.08-81.94 10.95-29.04 22.6-57.2 33.83-88.63l.54-1.48 237.59-630.24c.56-1.47-11.51-1.63-44.94 0s-52.98-.3-83.09-.3h-657.9c-79.63 0-25.53.3-67.42.3l-433.01 1157.83c-10.53 28.15-7.12 57.08 9.91 81.85 17.04 24.76 42.83 38.39 72.89 38.52z" fill="#fff"/>
</svg>